# xmcd CD database file
#
# Track frame offsets:
#	150
#	12612
#	27054
#	39964
#	71970
#	93608
#	119361
#	128292
#	158892
#	182113
#	196181
#	211707
#	223030
#	235155
#	250404
#
# Disc length: 3980 seconds
#
# Revision: 0
# Processed by: cddbd v1.5.2PL0 Copyright (c) Steve Scherf et al.
# Submitted via: CDex 1.51
#
DISCID=cd0f8a0f
DTITLE=Various Artist - Original Jazz Vol 2
DYEAR=2012
DGENRE=Jazz
TTITLE0=Air On A G String-Jacques Loussier
TTITLE1=Don't Be That Way-Benny Goodman
TTITLE2=It Ain't Necessarily So-Aretha Franklin
TTITLE3=Lazy Bird-John Coltrane
TTITLE4=Li'l Darlin'-Gene Harris
TTITLE5=On Green Dolphin Street-Eric Dolphy Quintet
TTITLE6=Always True To You In My Fashion-Peggy Lee and George Shearing
TTITLE7=Perdido-Duke Ellington
TTITLE8=Ain't Misbehavin-Ray Brown
TTITLE9=Three For The Festival-Rahsaan Roland Kirk
TTITLE10=A Sleeping Bee-Quincy Jones
TTITLE11=Sweet Thing-Lena Horne
TTITLE12=April In Paris-Count Basie
TTITLE13=All Of Me-Oscar Peterson
TTITLE14=Blue Train-John Coltrane
EXTD=YEAR: 2012
EXTT0=
EXTT1=
EXTT2=
EXTT3=
EXTT4=
EXTT5=
EXTT6=
EXTT7=
EXTT8=
EXTT9=
EXTT10=
EXTT11=
EXTT12=
EXTT13=
EXTT14=
PLAYORDER=
